{
    "asset" : {
        "generator" : "Khronos glTF Blender I/O v1.8.19",
        "version" : "2.0"
    },
    "scene" : 0,
    "scenes" : [
        {
            "name" : "Scene",
            "nodes" : [
                0
            ]
        }
    ],
    "nodes" : [
        {
            "mesh" : 0,
            "name" : "Plane"
        }
    ],
    "meshes" : [
        {
            "name" : "Plane",
            "primitives" : [
                {
                    "attributes" : {
                        "POSITION" : 0,
                        "NORMAL" : 1,
                        "TEXCOORD_0" : 2
                    },
                    "indices" : 3
                }
            ]
        }
    ],
    "accessors" : [
        {
            "bufferView" : 0,
            "componentType" : 5126,
            "count" : 36810,
            "max" : [
                1.0000001192092896,
                0.5858824253082275,
                1.0000001192092896
            ],
            "min" : [
                -1.0000001192092896,
                0.0023529408499598503,
                -1.0000001192092896
            ],
            "type" : "VEC3"
        },
        {
            "bufferView" : 1,
            "componentType" : 5126,
            "count" : 36810,
            "type" : "VEC3"
        },
        {
            "bufferView" : 2,
            "componentType" : 5126,
            "count" : 36810,
            "type" : "VEC2"
        },
        {
            "bufferView" : 3,
            "componentType" : 5123,
            "count" : 55296,
            "type" : "SCALAR"
        }
    ],
    "bufferViews" : [
        {
            "buffer" : 0,
            "byteLength" : 441720,
            "byteOffset" : 0
        },
        {
            "buffer" : 0,
            "byteLength" : 441720,
            "byteOffset" : 441720
        },
        {
            "buffer" : 0,
            "byteLength" : 294480,
            "byteOffset" : 883440
        },
        {
            "buffer" : 0,
            "byteLength" : 110592,
            "byteOffset" : 1177920
        }
    ],
    "buffers" : [
        {
            "byteLength" : 1288512,
            "uri" : "data:application/octet-stream;base64,"
        }
    ]
}
