<svg version="1.1" xmlns="http://www.w3.org/2000/svg" viewBox="-2398.6747187923183 -1615.825 6660.874718792318 2434.65"><desc>Created with Snap</desc><defs></defs><g><g transform="matrix(20.2475,0,0,20.2475,-2192.7122,-1409.8625)"><g><path d="M78.4,66.5c-5.5,4.8-9.9,15.2-9.9,15.2s-6.9-11.4-12.9-15.3c-9.5-6.1-13.6-6.2-13.6-6.2V65c0,0,7.8,1.2,11.7,4.6   c8.2,7.1,14.8,18.5,14.8,18.5S74.4,75,80.1,70.5C88.1,64.3,95,65,95,65v-4.8C95,60.1,85.1,60.7,78.4,66.5z" fill="#e0aaff" style=""></path><path d="M42,80c-6.4-3.6-17.8-4.3-17.8-4.3s8.7-10.1,10.5-17C37.5,47.9,36.2,44,36.2,44l-4.6,1.6c0,0,1.3,7.7-0.6,12.4   c-4.1,9.9-13,19.8-13,19.8s14.6,1.3,20.7,5.1c8.6,5.4,10.2,12,10.2,12l4.6-1.6C53.5,93.4,49.7,84.4,42,80z" fill="#e0aaff" style=""></path><path d="M35.3,36.8c11.3-0.9,14.6-3.4,14.6-3.4l-3-3.8c0,0-6.9,3.7-12.1,3.4c-10.9-0.6-23.3-5.6-23.3-5.6s3.5,14,1.8,20.9   C10.9,58.2,5,61.8,5,61.8l3,3.8c0,0,7.5-6.5,9.1-15.1c1.3-7.1-1.7-18-1.7-18S28,37.4,35.3,36.8z" fill="#e0aaff" style=""></path><path d="M37.4,17.8c7.3-1.1,16.7-7.4,16.7-7.4s-0.6,13.2,2.4,19.8c4.6,10.2,8,12.5,8,12.5l2.7-4c0,0-5.9-5.2-7.3-10.2   C56.9,18.2,57.7,5,57.7,5s-12.3,7.8-19.5,8.5c-10.2,1-15.6-3.3-15.6-3.3l-2.7,4.1C19.9,14.2,28.6,19.1,37.4,17.8z" fill="#e0aaff" style=""></path><path d="M65,60.5c0,0,3.1-7.2,7.4-10.1c9-6.1,21.9-9.7,21.9-9.7s-11.5-8.9-14.5-15.4c-4.2-9.1-1.9-15.6-1.9-15.6l-4.8-1.2   c0,0-1.9,9.6,2.2,17.4c3.4,6.4,12.5,13.2,12.5,13.2S75,42.9,69.6,47.8c-8.3,7.6-9.4,11.5-9.4,11.5L65,60.5z" fill="#e0aaff" style=""></path></g><desc>Created with Snap</desc><defs></defs></g><g><g transform="matrix(1,0,0,-1,0,0)"><path d="M83 -2L38 0L38 233Q43 308 46 366Q49 424 57 466Q65 508 83 536Q101 565 137 582Q202 614 376 614Q451 614 503 599Q555 585 580 572Q637 544 637 494Q637 444 608 403Q580 363 534 333Q489 304 432 285Q375 266 318 254Q216 234 122 234L118 10Q118 -2 83 -2ZM121 347Q121 297 164 297Q170 297 185 297Q200 298 237 300Q275 303 317 310Q359 318 401 330Q444 342 478 360Q555 402 555 467Q540 532 436 550Q405 556 380 556Q356 556 322 553Q289 551 245 538Q201 525 171 503Q141 481 138 452Q137 440 133 424Q121 373 121 347ZM696 15Q696 19 698 27Q701 35 703 68Q706 101 707 147Q709 194 710 249Q712 305 713 363Q715 421 717 476Q719 532 723 578Q732 678 747 697Q755 720 801 720Q801 720 815 720Q815 682 806 560Q798 438 797 415Q862 448 922 486Q983 525 1035 557Q1088 590 1131 611Q1174 633 1195 633Q1230 633 1230 606Q1230 585 1198 559Q1166 534 1118 506Q1070 479 1013 451Q957 423 909 396Q861 370 829 347Q797 324 797 307Q815 296 856 277Q898 259 949 235Q1001 212 1056 185Q1112 159 1158 132Q1262 73 1262 34Q1262 21 1245 16Q1238 14 1231 14L1221 14Q1173 14 1131 37Q1089 60 1041 92Q994 124 934 158Q874 193 789 216L789 16Q787 12 771 7Q748 0 722 0Q696 0 696 15ZM1838 282Q1835 248 1835 185Q1835 123 1854 34L1775 -6L1739 266Q1704 271 1704 290Q1704 304 1720 323Q1737 342 1745 354Q1753 367 1754 382Q1756 398 1759 438Q1762 478 1764 523Q1767 568 1769 608Q1772 648 1772 664Q1794 686 1804 691Q1829 704 1838 681L1832 366Q2079 366 2129 398L2129 714Q2135 731 2185 731Q2196 731 2203 730Q2203 711 2204 672Q2206 634 2207 585Q2209 536 2211 481Q2213 427 2215 378Q2218 276 2220 228Q2227 108 2269 34Q2224 16 2170 16Q2124 130 2121 315Q2055 317 2031 317Q2007 317 1977 314Q1915 310 1838 282ZM2355 190Q2355 308 2457 380Q2538 437 2652 449Q2658 449 2680 449Q2702 449 2739 436Q2821 408 2851 337Q2863 309 2863 289Q2863 270 2862 262Q2862 137 2767 65Q2679 -1 2547 -1Q2452 -1 2403 43Q2355 87 2355 190ZM2424 166Q2424 104 2457 82Q2482 66 2541 66Q2600 66 2645 75Q2690 84 2725 106Q2800 154 2800 255Q2800 315 2768 353Q2733 394 2676 394Q2637 387 2597 379Q2558 371 2523 348Q2447 299 2424 166ZM2931 190Q2931 308 3033 380Q3114 437 3228 449Q3234 449 3256 449Q3278 449 3315 436Q3397 408 3427 337Q3439 309 3439 289Q3439 270 3438 262Q3438 137 3343 65Q3255 -1 3123 -1Q3028 -1 2979 43Q2931 87 2931 190ZM3000 166Q3000 104 3033 82Q3058 66 3117 66Q3176 66 3221 75Q3266 84 3301 106Q3376 154 3376 255Q3376 315 3344 353Q3309 394 3252 394Q3213 387 3173 379Q3134 371 3099 348Q3023 299 3000 166ZM3955 803Q3955 707 3949 615Q3944 524 3939 436Q3935 349 3935 250Q3935 152 3949 42Q3949 19 3940 9Q3932 -1 3912 -1Q3865 -1 3865 77L3865 110Q3723 4 3625 4Q3586 4 3545 23Q3505 42 3469 100Q3464 124 3464 149Q3464 174 3473 209Q3483 245 3512 283Q3542 321 3584 350Q3676 412 3783 412Q3829 412 3871 398Q3871 416 3873 461Q3876 506 3879 556Q3885 686 3887 709Q3889 733 3892 749Q3896 766 3903 778Q3918 803 3955 803ZM3537 157Q3537 78 3594 78Q3603 78 3614 80Q3655 80 3715 104Q3829 149 3854 182L3854 315Q3854 350 3797 350Q3790 351 3778 351Q3767 351 3743 346Q3719 341 3689 328Q3659 315 3630 296Q3569 255 3546 200Q3537 179 3537 157Z" fill="#000000" style=""></path></g></g></g></svg>